<svg id="visual" viewBox="0 0 1000 9999" width="1000" height="9999" xmlns="http://www.w3.org/2000/svg" xmlns:xlink="http://www.w3.org/1999/xlink" version="1.1"><rect x="0" y="0" width="1000" height="9999" fill="#1a1e21"></rect><path d="M297 0L313.8 83.3C330.7 166.7 364.3 333.3 370.5 500C376.7 666.7 355.3 833.3 364.5 1000C373.7 1166.7 413.3 1333.3 411.8 1500C410.3 1666.7 367.7 1833.3 323.7 2000C279.7 2166.7 234.3 2333.3 249.3 2500C264.3 2666.7 339.7 2833.3 349 3000C358.3 3166.7 301.7 3333.3 287.2 3500C272.7 3666.7 300.3 3833.3 338 4000C375.7 4166.7 423.3 4333.3 420 4500C416.7 4666.7 362.3 4833.3 353.3 4999.8C344.3 5166.3 380.7 5332.7 414.8 5499.2C449 5665.7 481 5832.3 453.7 5999C426.3 6165.7 339.7 6332.3 292.8 6499C246 6665.7 239 6832.3 224.3 6999C209.7 7165.7 187.3 7332.3 207 7499C226.7 7665.7 288.3 7832.3 318.5 7999C348.7 8165.7 347.3 8332.3 335.7 8499C324 8665.7 302 8832.3 330.5 8999C359 9165.7 438 9332.3 425.2 9499C412.3 9665.7 307.7 9832.3 255.3 9915.7L203 9999L0 9999L0 9915.7C0 9832.3 0 9665.7 0 9499C0 9332.3 0 9165.7 0 8999C0 8832.3 0 8665.7 0 8499C0 8332.3 0 8165.7 0 7999C0 7832.3 0 7665.7 0 7499C0 7332.3 0 7165.7 0 6999C0 6832.3 0 6665.7 0 6499C0 6332.3 0 6165.7 0 5999C0 5832.3 0 5665.7 0 5499.2C0 5332.7 0 5166.3 0 4999.8C0 4833.3 0 4666.7 0 4500C0 4333.3 0 4166.7 0 4000C0 3833.3 0 3666.7 0 3500C0 3333.3 0 3166.7 0 3000C0 2833.3 0 2666.7 0 2500C0 2333.3 0 2166.7 0 2000C0 1833.3 0 1666.7 0 1500C0 1333.3 0 1166.7 0 1000C0 833.3 0 666.7 0 500C0 333.3 0 166.7 0 83.3L0 0Z" fill="#ed3e38"></path><path d="M386 0L376.3 83.3C366.7 166.7 347.3 333.3 315.7 500C284 666.7 240 833.3 254.3 1000C268.7 1166.7 341.3 1333.3 371 1500C400.7 1666.7 387.3 1833.3 370.7 2000C354 2166.7 334 2333.3 302.3 2500C270.7 2666.7 227.3 2833.3 215.7 3000C204 3166.7 224 3333.3 222.3 3500C220.7 3666.7 197.3 3833.3 230.8 4000C264.3 4166.7 354.7 4333.3 371 4500C387.3 4666.7 329.7 4833.3 293.3 4999.8C257 5166.3 242 5332.7 265.5 5499.2C289 5665.7 351 5832.3 371 5999C391 6165.7 369 6332.3 364.7 6499C360.3 6665.7 373.7 6832.3 369 6999C364.3 7165.7 341.7 7332.3 317.2 7499C292.7 7665.7 266.3 7832.3 247.3 7999C228.3 8165.7 216.7 8332.3 248.8 8499C281 8665.7 357 8832.3 346.8 8999C336.7 9165.7 240.3 9332.3 234.5 9499C228.7 9665.7 313.3 9832.3 355.7 9915.7L398 9999L0 9999L0 9915.7C0 9832.3 0 9665.7 0 9499C0 9332.3 0 9165.7 0 8999C0 8832.3 0 8665.7 0 8499C0 8332.3 0 8165.7 0 7999C0 7832.3 0 7665.7 0 7499C0 7332.3 0 7165.7 0 6999C0 6832.3 0 6665.7 0 6499C0 6332.3 0 6165.7 0 5999C0 5832.3 0 5665.7 0 5499.2C0 5332.7 0 5166.3 0 4999.8C0 4833.3 0 4666.7 0 4500C0 4333.3 0 4166.7 0 4000C0 3833.3 0 3666.7 0 3500C0 3333.3 0 3166.7 0 3000C0 2833.3 0 2666.7 0 2500C0 2333.3 0 2166.7 0 2000C0 1833.3 0 1666.7 0 1500C0 1333.3 0 1166.7 0 1000C0 833.3 0 666.7 0 500C0 333.3 0 166.7 0 83.3L0 0Z" fill="#d4362e"></path><path d="M259 0L240.8 83.3C222.7 166.7 186.3 333.3 187.2 500C188 666.7 226 833.3 237.3 1000C248.7 1166.7 233.3 1333.3 239.3 1500C245.3 1666.7 272.7 1833.3 262.8 2000C253 2166.7 206 2333.3 215.8 2500C225.7 2666.7 292.3 2833.3 308.8 3000C325.3 3166.7 291.7 3333.3 251.7 3500C211.7 3666.7 165.3 3833.3 165 4000C164.7 4166.7 210.3 4333.3 227.3 4500C244.3 4666.7 232.7 4833.3 220.3 4999.8C208 5166.3 195 5332.7 195.5 5499.2C196 5665.7 210 5832.3 214.8 5999C219.7 6165.7 215.3 6332.3 226.2 6499C237 6665.7 263 6832.3 262.7 6999C262.3 7165.7 235.7 7332.3 216.7 7499C197.7 7665.7 186.3 7832.3 210.7 7999C235 8165.7 295 8332.3 304.8 8499C314.7 8665.7 274.3 8832.3 244.7 8999C215 9165.7 196 9332.3 208.8 9499C221.7 9665.7 266.3 9832.3 288.7 9915.7L311 9999L0 9999L0 9915.7C0 9832.3 0 9665.7 0 9499C0 9332.3 0 9165.7 0 8999C0 8832.3 0 8665.7 0 8499C0 8332.3 0 8165.7 0 7999C0 7832.3 0 7665.7 0 7499C0 7332.3 0 7165.7 0 6999C0 6832.3 0 6665.7 0 6499C0 6332.3 0 6165.7 0 5999C0 5832.3 0 5665.7 0 5499.2C0 5332.7 0 5166.3 0 4999.8C0 4833.3 0 4666.7 0 4500C0 4333.3 0 4166.7 0 4000C0 3833.3 0 3666.7 0 3500C0 3333.3 0 3166.7 0 3000C0 2833.3 0 2666.7 0 2500C0 2333.3 0 2166.7 0 2000C0 1833.3 0 1666.7 0 1500C0 1333.3 0 1166.7 0 1000C0 833.3 0 666.7 0 500C0 333.3 0 166.7 0 83.3L0 0Z" fill="#bc2e24"></path><path d="M254 0L244.3 83.3C234.7 166.7 215.3 333.3 208.3 500C201.3 666.7 206.7 833.3 213.3 1000C220 1166.7 228 1333.3 214.8 1500C201.7 1666.7 167.3 1833.3 177 2000C186.7 2166.7 240.3 2333.3 240 2500C239.7 2666.7 185.3 2833.3 157.5 3000C129.7 3166.7 128.3 3333.3 156 3500C183.7 3666.7 240.3 3833.3 259.5 4000C278.7 4166.7 260.3 4333.3 249.3 4500C238.3 4666.7 234.7 4833.3 218.3 4999.8C202 5166.3 173 5332.7 148.5 5499.2C124 5665.7 104 5832.3 93.8 5999C83.7 6165.7 83.3 6332.3 85.2 6499C87 6665.7 91 6832.3 125.5 6999C160 7165.7 225 7332.3 231.3 7499C237.7 7665.7 185.3 7832.3 156.7 7999C128 8165.7 123 8332.3 128 8499C133 8665.7 148 8832.3 156.5 8999C165 9165.7 167 9332.3 180 9499C193 9665.7 217 9832.3 229 9915.7L241 9999L0 9999L0 9915.7C0 9832.3 0 9665.7 0 9499C0 9332.3 0 9165.7 0 8999C0 8832.3 0 8665.7 0 8499C0 8332.3 0 8165.7 0 7999C0 7832.3 0 7665.7 0 7499C0 7332.3 0 7165.7 0 6999C0 6832.3 0 6665.7 0 6499C0 6332.3 0 6165.7 0 5999C0 5832.3 0 5665.7 0 5499.2C0 5332.7 0 5166.3 0 4999.8C0 4833.3 0 4666.7 0 4500C0 4333.3 0 4166.7 0 4000C0 3833.3 0 3666.7 0 3500C0 3333.3 0 3166.7 0 3000C0 2833.3 0 2666.7 0 2500C0 2333.3 0 2166.7 0 2000C0 1833.3 0 1666.7 0 1500C0 1333.3 0 1166.7 0 1000C0 833.3 0 666.7 0 500C0 333.3 0 166.7 0 83.3L0 0Z" fill="#a4261b"></path><path d="M100 0L102.7 83.3C105.3 166.7 110.7 333.3 108.5 500C106.3 666.7 96.7 833.3 103.2 1000C109.7 1166.7 132.3 1333.3 138.7 1500C145 1666.7 135 1833.3 124 2000C113 2166.7 101 2333.3 108.2 2500C115.3 2666.7 141.7 2833.3 157.5 3000C173.3 3166.7 178.7 3333.3 167 3500C155.3 3666.7 126.7 3833.3 131.8 4000C137 4166.7 176 4333.3 177.8 4500C179.7 4666.7 144.3 4833.3 145.3 4999.8C146.3 5166.3 183.7 5332.7 185.3 5499.2C187 5665.7 153 5832.3 141.5 5999C130 6165.7 141 6332.3 155.8 6499C170.7 6665.7 189.3 6832.3 186.3 6999C183.3 7165.7 158.7 7332.3 141.8 7499C125 7665.7 116 7832.3 129.2 7999C142.3 8165.7 177.7 8332.3 190.2 8499C202.7 8665.7 192.3 8832.3 168.7 8999C145 9165.7 108 9332.3 88.7 9499C69.3 9665.7 67.7 9832.3 66.8 9915.7L66 9999L0 9999L0 9915.7C0 9832.3 0 9665.7 0 9499C0 9332.3 0 9165.7 0 8999C0 8832.3 0 8665.7 0 8499C0 8332.3 0 8165.7 0 7999C0 7832.3 0 7665.7 0 7499C0 7332.3 0 7165.7 0 6999C0 6832.3 0 6665.7 0 6499C0 6332.3 0 6165.7 0 5999C0 5832.3 0 5665.7 0 5499.2C0 5332.7 0 5166.3 0 4999.8C0 4833.3 0 4666.7 0 4500C0 4333.3 0 4166.7 0 4000C0 3833.3 0 3666.7 0 3500C0 3333.3 0 3166.7 0 3000C0 2833.3 0 2666.7 0 2500C0 2333.3 0 2166.7 0 2000C0 1833.3 0 1666.7 0 1500C0 1333.3 0 1166.7 0 1000C0 833.3 0 666.7 0 500C0 333.3 0 166.7 0 83.3L0 0Z" fill="#8d1e12"></path><path d="M54 0L66.5 83.3C79 166.7 104 333.3 113.3 500C122.7 666.7 116.3 833.3 114 1000C111.7 1166.7 113.3 1333.3 117.7 1500C122 1666.7 129 1833.3 118.2 2000C107.3 2166.7 78.7 2333.3 73.2 2500C67.7 2666.7 85.3 2833.3 84.8 3000C84.3 3166.7 65.7 3333.3 71.7 3500C77.7 3666.7 108.3 3833.3 109.3 4000C110.3 4166.7 81.7 4333.3 65.8 4500C50 4666.7 47 4833.3 45.5 4999.8C44 5166.3 44 5332.7 54.5 5499.2C65 5665.7 86 5832.3 95.3 5999C104.7 6165.7 102.3 6332.3 107.7 6499C113 6665.7 126 6832.3 119.8 6999C113.7 7165.7 88.3 7332.3 77.2 7499C66 7665.7 69 7832.3 74.5 7999C80 8165.7 88 8332.3 98.3 8499C108.7 8665.7 121.3 8832.3 115.8 8999C110.3 9165.7 86.7 9332.3 83.2 9499C79.7 9665.7 96.3 9832.3 104.7 9915.7L113 9999L0 9999L0 9915.7C0 9832.3 0 9665.7 0 9499C0 9332.3 0 9165.7 0 8999C0 8832.3 0 8665.7 0 8499C0 8332.3 0 8165.7 0 7999C0 7832.3 0 7665.7 0 7499C0 7332.3 0 7165.7 0 6999C0 6832.3 0 6665.7 0 6499C0 6332.3 0 6165.7 0 5999C0 5832.3 0 5665.7 0 5499.2C0 5332.7 0 5166.3 0 4999.8C0 4833.3 0 4666.7 0 4500C0 4333.3 0 4166.7 0 4000C0 3833.3 0 3666.7 0 3500C0 3333.3 0 3166.7 0 3000C0 2833.3 0 2666.7 0 2500C0 2333.3 0 2166.7 0 2000C0 1833.3 0 1666.7 0 1500C0 1333.3 0 1166.7 0 1000C0 833.3 0 666.7 0 500C0 333.3 0 166.7 0 83.3L0 0Z" fill="#771609"></path></svg>