<svg id="visual" viewBox="0 0 1000 9999" width="1000" height="9999" xmlns="http://www.w3.org/2000/svg" xmlns:xlink="http://www.w3.org/1999/xlink" version="1.1"><path d="M163 0L178.7 111.2C194.3 222.3 225.7 444.7 221.7 666.8C217.7 889 178.3 1111 180 1333.2C181.7 1555.3 224.3 1777.7 229.5 1999.8C234.7 2222 202.3 2444 198.8 2666.2C195.3 2888.3 220.7 3110.7 212 3333C203.3 3555.3 160.7 3777.7 141.5 3999.8C122.3 4222 126.7 4444 139.8 4666.2C153 4888.3 175 5110.7 206.7 5332.8C238.3 5555 279.7 5777 281.7 5999.2C283.7 6221.3 246.3 6443.7 244.8 6666C243.3 6888.3 277.7 7110.7 287.8 7332.8C298 7555 284 7777 277.7 7999.2C271.3 8221.3 272.7 8443.7 261.2 8665.8C249.7 8888 225.3 9110 210 9332.2C194.7 9554.3 188.3 9776.7 185.2 9887.8L182 9999" fill="none" stroke-linecap="round" stroke-linejoin="miter" stroke="#fff" stroke-width="8"></path></svg>